# xmcd
#
# Track frame offsets:
#	150
#	12434
#	25371
#	36789
#	49384
#	61944
#	74421
#	87910
#	99943
#	112631
#	125226
#	136958
#	148975
#	160229
#	172951
#	186468
#	198368
#	211104
#	223647
#	236686
#	248517
#	261704
#	274728
#	286709
#	299712
#	313255
#
# Disc length: 4343 seconds
#
# Revision: 0
# Processed by: cddbd v1.5.1PL2 Copyright (c) Steve Scherf et al.
# Submitted via: audiograbber 1.83.01
#
DISCID=9610f51a
DTITLE=Hank Williams - Country Cowboys CD2
DYEAR=1900
DGENRE=Country
TTITLE0=Your Cheatin' Heart
TTITLE1=I'm So Lonesome I Could Cry
TTITLE2=Crazy Heart
TTITLE3=Half As Much
TTITLE4=Lost Highway
TTITLE5=Cold, Cold Heart
TTITLE6=Wedding Bells
TTITLE7=Settin' The Woods On Fire
TTITLE8=Lovesick Blues
TTITLE9=Fly Trouble
TTITLE10=Nobody's Lonesome For Me
TTITLE11=Dear John
TTITLE12=I'll Never Get Out Of This World Alive
TTITLE13=Honky Tonkin'
TTITLE14=Hey, Good Lookin'
TTITLE15=Window Shopping
TTITLE16=I Saw The Light
TTITLE17=Howlin' At The Moon
TTITLE18=I Just Don't Like This Kind Of Livin'
TTITLE19=My Son Calls Another Man Daddy
TTITLE20=I Can't Get You Off Of My Mind
TTITLE21=Ther'll Be No Teardrops Tonight
TTITLE22=I'm Satisfied With You
TTITLE23=Pan American
TTITLE24=Mind Your Own Business
TTITLE25=They'll Never Take Her Love From Me
EXTD=
EXTT0=
EXTT1=
EXTT2=
EXTT3=
EXTT4=
EXTT5=
EXTT6=
EXTT7=
EXTT8=
EXTT9=
EXTT10=
EXTT11=
EXTT12=
EXTT13=
EXTT14=
EXTT15=
EXTT16=
EXTT17=
EXTT18=
EXTT19=
EXTT20=
EXTT21=
EXTT22=
EXTT23=
EXTT24=
EXTT25=
PLAYORDER=
